<?xml version="1.0" encoding="utf-8"?>
<!-- Generator: Adobe Illustrator 22.0.0, SVG Export Plug-In . SVG Version: 6.00 Build 0)  -->
<svg version="1.0" id="Layer_1" xmlns="http://www.w3.org/2000/svg" xmlns:xlink="http://www.w3.org/1999/xlink" x="0px" y="0px"
	 viewBox="0 0 4000 3000" style="enable-background:new 0 0 4000 3000;" xml:space="preserve">
<style type="text/css">
	.st0{fill:#F1F2F2;}
	.st1{fill:#1B75BC;}
</style>
<g>
	<rect x="16.8" y="19.2" class="st0" width="3975.2" height="2961.5"/>
	<path class="st1" d="M2402.6,2681.3c-20.7,45.6-66.7,77.4-120.1,77.4h-556.2c-53.4,0-99.4-31.8-120.1-77.4H631v0
		c0,139.3,113,252.3,252.3,252.3h2242.1c139.3,0,252.3-113,252.3-252.3v0H2402.6z"/>
	<g>
		<path class="st1" d="M1915.8,652.2l-175.8-143l-5.3-155.5c52-9.7,91.4-55.4,91.4-110.2c0-61.8-50.3-112.1-112.1-112.1
			S1602,181.8,1602,243.6c0,55.2,40.1,101.1,92.6,110.4l5.6,165.7c0.2,5.8,2.9,11.2,7.4,14.9l175.5,142.7l3,1261.9l-127.5,136.4
			c-3.6,3.9-5.6,9.1-5.4,14.4l3.5,104.6c-47.7,12.9-82.8,56.5-82.8,108.2c0,61.8,50.3,112.1,112.1,112.1s112.1-50.3,112.1-112.1
			c0-58.2-44.5-106.1-101.3-111.6l-3.2-94.3l127.2-136.1c3.5-3.7,5.4-8.6,5.4-13.8l-3-1279.4C1923.2,661.7,1920.5,656,1915.8,652.2z
			 M1642.1,243.6c0-39.7,32.3-72,72-72c39.7,0,72,32.3,72,72s-32.3,72-72,72C1674.4,315.6,1642.1,283.3,1642.1,243.6z M1858,2302.8
			c0,39.7-32.3,72-72,72c-39.7,0-72-32.3-72-72c0-39.7,32.3-72,72-72C1825.7,2230.8,1858,2263.1,1858,2302.8z"/>
		<path class="st1" d="M1747.7,1843.8c7-3.2,11.5-10.1,11.6-17.8l19.8-1043.8c0.1-5.7-2.2-11.1-6.3-15l-119-111.6
			c10.3-17,16.3-36.9,16.3-58.1c0-61.8-50.3-112.1-112.1-112.1s-112.1,50.3-112.1,112.1s50.3,112.1,112.1,112.1
			c26.1,0,50.1-9,69.1-24l111.7,104.8l-19.4,1022.4l-109,50.7c-20.4-21.5-49.2-34.9-81.1-34.9c-61.8,0-112.1,50.3-112.1,112.1
			s50.3,112.1,112.1,112.1s112.1-50.3,112.1-112.1c0-15.3-3.1-30-8.7-43.3L1747.7,1843.8z M1558,669.3c-39.7,0-72-32.3-72-72
			c0-39.7,32.3-72,72-72c39.7,0,72,32.3,72,72C1629.9,637,1597.7,669.3,1558,669.3z M1529.3,2012.5c-39.7,0-72-32.3-72-72
			c0-39.7,32.3-72,72-72s72,32.3,72,72C1601.3,1980.3,1569,2012.5,1529.3,2012.5z"/>
		<path class="st1" d="M1524.3,1575.7c4.3-3.8,6.7-9.3,6.7-15V855.4c0-5.9-2.6-11.4-7-15.2l-146.3-125.4c8.3-15.6,13-33.4,13-52.3
			c0-61.8-50.3-112.1-112.1-112.1s-112.1,50.3-112.1,112.1s50.3,112.1,112.1,112.1c28.5,0,54.5-10.7,74.2-28.2l138,118.3v687.1
			l-134.4,120c-20.2-19.5-47.6-31.6-77.9-31.6c-61.8,0-112.1,50.3-112.1,112.1s50.3,112.1,112.1,112.1s112.1-50.3,112.1-112.1
			c0-17.1-3.8-33.2-10.7-47.7L1524.3,1575.7z M1278.6,734.4c-39.7,0-72-32.3-72-72c0-39.7,32.3-72,72-72c39.7,0,72,32.3,72,72
			c0,14.2-4.2,27.5-11.3,38.7c-1.5,1-2.9,2.2-4.1,3.6c-1.7,2-2.9,4.2-3.7,6.5C1318.3,725.4,1299.4,734.4,1278.6,734.4z
			 M1278.6,1824.2c-39.7,0-72-32.3-72-72c0-39.7,32.3-72,72-72c20.3,0,38.7,8.5,51.8,22.1c-0.5,5.3,1.2,10.8,5,15.1
			c2.5,2.8,5.7,4.8,9,5.8c3.9,8.9,6.1,18.7,6.1,29C1350.5,1791.9,1318.3,1824.2,1278.6,1824.2z"/>
		<path class="st1" d="M2479.5,1832.7c-31.9,0-60.7,13.4-81.1,34.9l-109-50.7L2270,794.5l111.7-104.8c19.1,15,43.1,24,69.1,24
			c61.8,0,112.1-50.3,112.1-112.1s-50.3-112.1-112.1-112.1c-61.8,0-112.1,50.3-112.1,112.1c0,21.3,6,41.2,16.3,58.1l-119,111.6
			c-4.1,3.9-6.4,9.3-6.3,15l19.8,1043.8c0.1,7.7,4.7,14.6,11.6,17.8l115,53.5c-5.6,13.3-8.7,28-8.7,43.3
			c0,61.8,50.3,112.1,112.1,112.1c61.8,0,112.1-50.3,112.1-112.1S2541.3,1832.7,2479.5,1832.7z M2450.8,529.6c39.7,0,72,32.3,72,72
			c0,39.7-32.3,72-72,72c-39.7,0-72-32.3-72-72C2378.8,561.9,2411.1,529.6,2450.8,529.6z M2479.5,2016.8c-39.7,0-72-32.3-72-72
			c0-39.7,32.3-72,72-72c39.7,0,72,32.3,72,72C2551.4,1984.5,2519.1,2016.8,2479.5,2016.8z"/>
		<path class="st1" d="M2730.2,1644.3c-30.2,0-57.7,12.1-77.9,31.6l-134.4-120V868.9l138-118.3c19.8,17.5,45.8,28.2,74.2,28.2
			c61.8,0,112.1-50.3,112.1-112.1s-50.3-112.1-112.1-112.1s-112.1,50.3-112.1,112.1c0,18.9,4.7,36.7,13,52.3l-146.3,125.4
			c-4.4,3.8-7,9.4-7,15.2v705.3c0,5.7,2.4,11.2,6.7,15l144.3,128.8c-6.8,14.5-10.7,30.6-10.7,47.7c0,61.8,50.3,112.1,112.1,112.1
			s112.1-50.3,112.1-112.1S2792,1644.3,2730.2,1644.3z M2730.2,594.7c39.7,0,72,32.3,72,72c0,39.7-32.3,72-72,72
			c-20.9,0-39.7-8.9-52.8-23.2c-0.8-2.3-2-4.5-3.7-6.5c-1.2-1.4-2.6-2.6-4.1-3.6c-7.2-11.2-11.3-24.4-11.3-38.7
			C2658.2,627,2690.5,594.7,2730.2,594.7z M2730.2,1828.4c-39.7,0-72-32.3-72-72c0-10.3,2.2-20.1,6.1-29c3.4-1,6.5-3,9-5.8
			c3.8-4.3,5.5-9.8,5-15.1c13.1-13.6,31.5-22.1,51.8-22.1c39.7,0,72,32.3,72,72C2802.1,1796.1,2769.9,1828.4,2730.2,1828.4z"/>
		<path class="st1" d="M2230.6,2127.4v-102.2c0-5.3-2.1-10.4-5.9-14.2l-132-132l-39.6-1261.3l170.6-148.6c4.4-3.8,6.9-9.3,6.9-15.1
			V288.7c52.3-9.5,92-55.3,92-110.3c0-61.8-50.3-112.1-112.1-112.1c-61.8,0-112.1,50.3-112.1,112.1c0,55,39.8,100.8,92,110.3v156.1
			l-170.9,148.8c-4.5,4-7.1,9.7-6.9,15.8l40.1,1278.7c0.2,5.1,2.3,10,5.9,13.6l131.7,131.7v93.9c-52.3,9.5-92,55.3-92,110.3
			c0,61.8,50.3,112.1,112.1,112.1c61.8,0,112.1-50.3,112.1-112.1C2322.6,2182.7,2282.8,2136.8,2230.6,2127.4z M2138.5,178.4
			c0-39.7,32.3-72,72-72c39.7,0,72,32.3,72,72c0,39.7-32.3,72-72,72C2170.8,250.4,2138.5,218.1,2138.5,178.4z M2210.5,2309.6
			c-39.7,0-72-32.3-72-72c0-39.7,32.3-72,72-72c39.7,0,72,32.3,72,72C2282.5,2277.3,2250.2,2309.6,2210.5,2309.6z"/>
	</g>
	<path class="st1" d="M2936,1115.9h-344.5v114.7H2936c71.2,0,129.1,54,129.1,120.4v1032.2c0,66.4-57.9,120.4-129.1,120.4H1072.8
		c-71.2,0-129.1-54-129.1-120.4V1351c0-66.4,57.9-120.4,129.1-120.4h344.5v-114.7h-344.5c-139,0-252.1,105.5-252.1,235.1v1032.2
		c0,129.6,113.1,235.1,252.1,235.1H2936c139,0,252.1-105.5,252.1-235.1V1351C3188.1,1221.4,3075,1115.9,2936,1115.9z"/>
</g>
</svg>
